HIERARCHY
ROOT Hips
{
	OFFSET 0.000000 0.000000 0.000000
	CHANNELS 6 Xposition Yposition Zposition Zrotation Yrotation Xrotation 
	JOINT LHipJoint
	{
		OFFSET 0.000000 0.000000 0.000000
		CHANNELS 3 Zrotation Yrotation Xrotation
		JOINT LeftUpLeg
		{
			OFFSET 1.363060 -1.794630 0.839290
			CHANNELS 3 Zrotation Yrotation Xrotation
			JOINT LeftLeg
			{
				OFFSET 2.448110 -6.726130 0.000000
				CHANNELS 3 Zrotation Yrotation Xrotation
				JOINT LeftFoot
				{
					OFFSET 2.562200 -7.039590 0.000000
					CHANNELS 3 Zrotation Yrotation Xrotation
					JOINT LeftToeBase
					{
						OFFSET 0.157640 -0.433110 2.322550
						CHANNELS 3 Zrotation Yrotation Xrotation
						End Site
						{
							OFFSET 0.000000 0.000000 0.000000
						}
					}
				}
			}
		}
	}
	JOINT RHipJoint
	{
		OFFSET 0.000000 0.000000 0.000000
		CHANNELS 3 Zrotation Yrotation Xrotation
		JOINT RightUpLeg
		{
			OFFSET -1.305520 -1.794630 0.839290
			CHANNELS 3 Zrotation Yrotation Xrotation
			JOINT RightLeg
			{
				OFFSET -2.542530 -6.985550 0.000000
				CHANNELS 3 Zrotation Yrotation Xrotation
				JOINT RightFoot
				{
					OFFSET -2.568260 -7.056230 0.000000
					CHANNELS 3 Zrotation Yrotation Xrotation
					JOINT RightToeBase
					{
						OFFSET -0.164730 -0.452590 2.363150
						CHANNELS 3 Zrotation Yrotation Xrotation
						End Site
						{
							OFFSET 0.000000 0.000000 0.000000
						}
					}
				}
			}
		}
	}
	JOINT LowerBack
	{
		OFFSET 0.000000 0.000000 0.000000
		CHANNELS 3 Zrotation Yrotation Xrotation
		JOINT Spine
		{
			OFFSET 0.028270 2.035590 -0.193380
			CHANNELS 3 Zrotation Yrotation Xrotation
			JOINT Spine1
			{
				OFFSET 0.056720 2.048850 -0.042750
				CHANNELS 3 Zrotation Yrotation Xrotation
				JOINT Neck
				{
					OFFSET 0.000000 0.000000 0.000000
					CHANNELS 3 Zrotation Yrotation Xrotation
					JOINT Neck1
					{
						OFFSET -0.054170 1.746240 0.172020
						CHANNELS 3 Zrotation Yrotation Xrotation
						JOINT Head
						{
							OFFSET 0.104070 1.761360 -0.123970
							CHANNELS 3 Zrotation Yrotation Xrotation
							End Site
							{
								OFFSET 0.000000 0.000000 0.000000
							}
						}
					}
				}
				JOINT LeftShoulder
				{
					OFFSET 0.000000 0.000000 0.000000
					CHANNELS 3 Zrotation Yrotation Xrotation
					JOINT LeftArm
					{
						OFFSET 3.362410 1.200890 -0.311210
						CHANNELS 3 Zrotation Yrotation Xrotation
						JOINT LeftForeArm
						{
							OFFSET 4.983000 -0.000000 -0.000000
							CHANNELS 3 Zrotation Yrotation Xrotation
							JOINT LeftHand
							{
								OFFSET 3.483560 -0.000000 -0.000000
								CHANNELS 3 Zrotation Yrotation Xrotation
								JOINT LeftFingerBase
								{
									OFFSET 0.000000 0.000000 0.000000
									CHANNELS 3 Zrotation Yrotation Xrotation
									JOINT LeftHandIndex1
									{
										OFFSET 0.715260 -0.000000 -0.000000
										CHANNELS 3 Zrotation Yrotation Xrotation
										End Site
										{
											OFFSET 0.000000 0.000000 0.000000
										}
									}
								}
								JOINT LThumb
								{
									OFFSET 0.000000 0.000000 0.000000
									CHANNELS 3 Zrotation Yrotation Xrotation
									End Site
									{
										OFFSET 0.000000 0.000000 0.000000
									}
								}
							}
						}
					}
				}
				JOINT RightShoulder
				{
					OFFSET 0.000000 0.000000 0.000000
					CHANNELS 3 Zrotation Yrotation Xrotation
					JOINT RightArm
					{
						OFFSET -3.136600 1.374050 -0.404650
						CHANNELS 3 Zrotation Yrotation Xrotation
						JOINT RightForeArm
						{
							OFFSET -5.241900 -0.000000 -0.000000
							CHANNELS 3 Zrotation Yrotation Xrotation
							JOINT RightHand
							{
								OFFSET -3.444170 -0.000000 -0.000000
								CHANNELS 3 Zrotation Yrotation Xrotation
								JOINT RightFingerBase
								{
									OFFSET 0.000000 0.000000 0.000000
									CHANNELS 3 Zrotation Yrotation Xrotation
									JOINT RightHandIndex1
									{
										OFFSET -0.622530 -0.000000 -0.000000
										CHANNELS 3 Zrotation Yrotation Xrotation
										End Site
										{
											OFFSET 0.000000 0.000000 0.000000
										}
									}
								}
								JOINT RThumb
								{
									OFFSET 0.000000 0.000000 0.000000
									CHANNELS 3 Zrotation Yrotation Xrotation
									End Site
									{
										OFFSET 0.000000 0.000000 0.000000
									}
								}
							}
						}
					}
				}
			}
		}
	}
}
MOTION
Frames: 11
Frame Time: 0.008333
-0.619494 18.324500 5.553819 -0.304809 -2.910544 6.039348 1.045038 3.125543 1.951078 -13.791659 -12.030133 -6.432980 0.612733 6.530791 21.045272 -0.810252 8.174244 -16.098673 8.280500 -16.321700 -53.566900 -4.510657 -3.975991 0.882675 17.588050 5.746243 1.870641 0.284506 0.743277 1.515948 0.299390 -5.482558 -12.650271 -0.036400 1.232300 -3.388300 2.496286 2.519197 -4.554940 -7.262565 2.084050 6.408113 1.223378 1.918660 -9.602926 -2.801800 -4.049077 -23.182500 7.643485 -6.285962 33.387385 1.279500 -1.848900 9.854300 2.357251 -7.975920 1.545178 -91.985307 9.432494 25.538506 23.223840 -31.373965 -5.664267 0.683278 -0.000071 7.055003 9.125141 -28.318848 -4.048500 -7.125000 0.000000 0.000000 -12.950100 1.882700 12.853600 -1.722953 9.781002 4.244571 94.250191 -14.946121 20.198420 -32.377806 39.662486 -9.739316 0.876922 -3.501013 11.008060 -8.249404 -43.794032 6.451900 7.125000 0.000000 0.000000 35.516600 -67.482500 -20.206500 
-0.620081 18.321662 5.559006 0.311819 -2.801412 5.833909 0.881901 3.112736 2.002381 -14.309036 -11.874120 -6.160974 0.579194 6.422430 20.756791 -0.819603 8.133673 -15.861568 8.279000 -16.320700 -53.561500 -4.656113 -4.015748 0.890224 17.066665 5.543039 2.015886 0.285118 0.750346 1.517221 0.290183 -5.426707 -12.671686 -0.035000 1.206900 -3.318400 2.552270 2.537884 -4.637371 -8.780305 2.037758 6.866207 1.885060 1.965350 -9.741285 -2.586208 -4.006023 -23.130790 7.664142 -6.291581 33.209374 1.279600 -1.852000 9.826300 2.621126 -7.977343 1.511651 -92.039901 9.400233 25.558463 23.200933 -31.365607 -5.657208 0.687187 -0.002379 7.065053 9.278295 -28.450819 -4.138100 -7.125000 0.000000 0.000000 -12.868800 1.736600 12.803100 -1.645911 9.748612 4.192640 94.295004 -14.929925 20.183690 -32.379941 39.750975 -9.784368 1.073175 -3.541510 10.954301 -4.325033 -45.296436 4.147700 7.125000 0.000000 0.000000 41.961500 -67.549900 -24.415100 
-0.620571 18.318530 5.564486 0.896817 -2.684538 5.630510 0.736259 3.100562 2.057321 -14.808814 -11.773445 -5.978949 0.572356 6.374688 20.649173 -0.806726 8.030879 -15.703854 8.281300 -16.322300 -53.569600 -4.781527 -4.054301 0.908253 16.555736 5.338852 2.158424 0.285224 0.757545 1.518587 0.275916 -5.344953 -12.706029 -0.034700 1.201600 -3.303700 2.552101 2.545994 -4.766012 -10.120178 1.998645 7.384374 2.496578 2.007752 -9.879776 -2.372318 -3.965213 -23.160213 7.647536 -6.291051 33.094847 1.272000 -1.854300 9.824900 2.868678 -7.976932 1.476208 -92.135879 9.337153 25.519728 23.166495 -31.347008 -5.642158 0.688489 -0.002996 7.114693 9.404187 -28.470243 -4.201600 -7.125000 0.000000 0.000000 -12.797200 1.701700 12.736300 -1.599192 9.724439 4.136123 94.319774 -14.917219 20.256197 -32.366371 39.787860 -9.779114 0.996677 -3.534138 10.960612 -5.902072 -44.860105 5.108400 7.125000 0.000000 0.000000 39.626800 -67.653300 -22.972800 
-0.620473 18.318628 5.563606 0.921580 -2.674439 5.657546 0.728346 3.095843 2.044917 -14.829292 -11.805674 -5.927552 0.552482 6.336133 20.530224 -0.828479 8.116496 -15.692932 8.312000 -16.344000 -53.678800 -4.791598 -4.052714 0.893586 16.540957 5.328002 2.146971 0.284716 0.756028 1.518283 0.271454 -5.314938 -12.699561 -0.034700 1.202600 -3.306600 2.564838 2.547618 -4.732709 -10.220789 1.988719 7.250338 2.545017 2.009069 -9.852310 -2.262245 -3.962390 -23.186969 7.486107 -6.274645 33.148613 1.227400 -1.862700 9.836400 2.871442 -7.984057 1.489002 -92.156238 9.323451 25.473381 23.132907 -31.297559 -5.608633 0.676374 0.005937 7.177132 9.180319 -27.948823 -4.031200 -7.125000 0.000000 0.000000 -12.899300 2.231300 12.717600 -1.592243 9.729539 4.146412 94.318361 -14.919742 20.276127 -32.347624 39.757562 -9.755122 0.890256 -3.515712 10.971614 -8.025555 -44.081802 6.350800 7.125000 0.000000 0.000000 36.178300 -67.635800 -20.744400 
-0.620473 18.318335 5.563018 0.914363 -2.688002 5.657996 0.736358 3.098048 2.045412 -14.838757 -11.809943 -5.891142 0.541912 6.314627 20.471380 -0.848225 8.199545 -15.702236 8.345700 -16.367800 -53.798700 -4.783210 -4.053105 0.898221 16.537558 5.345116 2.145855 0.284182 0.755393 1.518008 0.268101 -5.293356 -12.697133 -0.035200 1.210700 -3.328800 2.521197 2.560638 -4.769812 -10.143716 2.008988 7.277172 2.546815 2.019538 -9.844306 -2.184673 -3.972450 -23.178418 7.283583 -6.252973 33.144225 1.177200 -1.878900 9.830000 2.851530 -7.984384 1.482891 -92.165597 9.300620 25.499024 23.124901 -31.268699 -5.571682 0.652539 0.021444 7.210303 8.675715 -27.060971 -3.692100 -7.125000 0.000000 0.000000 -13.150200 3.146200 12.754500 -1.611451 9.730454 4.143972 94.298289 -14.901123 20.257572 -32.346722 39.753328 -9.750613 0.882620 -3.512985 10.919956 -8.240368 -43.957606 6.468300 7.125000 0.000000 0.000000 35.758100 -67.597300 -20.448600 
-0.621158 18.317650 5.563508 0.884750 -2.696349 5.606156 0.764100 3.112522 2.075221 -14.842284 -11.790445 -5.871235 0.543251 6.307631 20.474365 -0.856938 8.232121 -15.703655 8.344000 -16.366500 -53.792500 -4.748856 -4.060916 0.940689 16.529699 5.359835 2.162291 0.283730 0.757292 1.518053 0.267883 -5.291047 -12.700179 -0.035200 1.211300 -3.330300 2.376252 2.569860 -4.959222 -9.826382 2.048317 7.642567 2.490559 2.032552 -9.883448 -2.249977 -3.999320 -23.207246 7.246760 -6.261432 33.080194 1.174900 -1.894400 9.822100 2.818553 -7.971285 1.445769 -92.201710 9.242025 25.529368 23.119933 -31.259576 -5.554311 0.640606 0.028954 7.242478 8.459044 -26.636590 -3.546100 -7.125000 0.000000 0.000000 -13.258600 3.579000 12.757300 -1.663441 9.724196 4.113399 94.243673 -14.856033 20.259768 -32.352819 39.760041 -9.753222 0.885043 -3.512258 10.878729 -8.237082 -43.968028 6.467500 7.125000 0.000000 0.000000 35.778400 -67.604500 -20.467000 
-0.622039 18.317845 5.563116 0.863409 -2.689031 5.570679 0.778963 3.120699 2.089751 -14.828117 -11.738289 -5.870893 0.546211 6.304270 20.475415 -0.848148 8.184378 -15.675099 8.330500 -16.357100 -53.744700 -4.731260 -4.063912 0.960103 16.535922 5.354732 2.174803 0.283718 0.758504 1.518193 0.270558 -5.304874 -12.696556 -0.032100 1.157400 -3.182000 2.304658 2.570473 -5.027698 -9.657747 2.064693 7.814952 2.449040 2.036852 -9.917614 -2.326967 -4.013300 -23.250636 7.318243 -6.280587 33.072046 1.195800 -1.897000 9.828200 2.804466 -7.962927 1.431013 -92.211325 9.236952 25.565871 23.129536 -31.273992 -5.559625 0.641127 0.030357 7.238468 8.505784 -26.635655 -3.567400 -7.125000 0.000000 0.000000 -13.231300 3.573200 12.730900 -1.686681 9.719583 4.098388 94.227216 -14.822636 20.249905 -32.325334 39.738934 -9.739383 0.881919 -3.512930 10.899454 -8.270220 -43.940247 6.484300 7.125000 0.000000 0.000000 35.699100 -67.591200 -20.406600 
-0.622822 18.318726 5.561942 0.849472 -2.686574 5.574995 0.777498 3.118585 2.083717 -14.802192 -11.760940 -5.858208 0.546887 6.305648 20.475606 -0.828692 8.115741 -15.707261 8.299900 -16.335400 -53.635700 -4.733046 -4.061069 0.951651 16.555930 5.355795 2.166460 0.283956 0.757943 1.518216 0.269453 -5.305596 -12.711441 -0.030100 1.119400 -3.077500 2.324251 2.576032 -4.982732 -9.667302 2.069805 7.736137 2.431228 2.038368 -9.909915 -2.391282 -4.015844 -23.222125 7.429511 -6.297043 33.041390 1.224200 -1.892800 9.819300 2.807058 -7.966106 1.437542 -92.199075 9.266635 25.586664 23.156399 -31.303270 -5.571254 0.640474 0.031457 7.228344 8.487216 -26.623241 -3.557900 -7.125000 0.000000 0.000000 -13.241400 3.586500 12.738000 -1.675101 9.719660 4.102320 94.246738 -14.825829 20.223349 -32.306142 39.721339 -9.730287 0.880646 -3.514086 10.921943 -8.261553 -43.940319 6.478700 7.125000 0.000000 0.000000 35.707100 -67.588400 -20.409400 
-0.623409 18.319215 5.561061 0.836172 -2.677668 5.579898 0.773041 3.117126 2.085691 -14.779329 -11.863230 -5.825261 0.547194 6.309059 20.484756 -0.815186 8.085810 -15.782575 8.246500 -16.297600 -53.445900 -4.735599 -4.061788 0.951778 16.576906 5.353012 2.154012 0.284259 0.758150 1.518409 0.267056 -5.301497 -12.732955 -0.034700 1.202400 -3.305900 2.355246 2.586025 -4.996447 -9.692360 2.079938 7.739749 2.417943 2.041102 -9.893111 -2.454997 -4.015276 -23.145041 7.551003 -6.307237 32.893438 1.255700 -1.888800 9.781000 2.817680 -7.968934 1.432537 -92.207378 9.260705 25.573607 23.182812 -31.335015 -5.582290 0.639388 0.032614 7.268611 8.483607 -26.593450 -3.553300 -7.125000 0.000000 0.000000 -13.242000 3.614500 12.731500 -1.667954 9.717405 4.096003 94.251296 -14.820985 20.218822 -32.312236 39.727244 -9.736521 0.878990 -3.514493 10.892093 -8.297077 -44.000202 6.507600 7.125000 0.000000 0.000000 35.764200 -67.642700 -20.488200 
-0.623702 18.319118 5.560474 0.817038 -2.660289 5.569478 0.772521 3.120081 2.097650 -14.754380 -11.917885 -5.810587 0.548346 6.311384 20.495658 -0.804767 8.062938 -15.843328 8.210700 -16.272000 -53.317900 -4.733241 -4.065394 0.963225 16.601781 5.341301 2.147908 0.284744 0.759510 1.518625 0.273235 -5.332743 -12.720451 -0.041800 1.319400 -3.628100 2.373961 2.589883 -5.057301 -9.675082 2.088640 7.857303 2.402454 2.041448 -9.903074 -2.443484 -3.999230 -23.155046 7.545843 -6.280853 32.811795 1.256200 -1.878500 9.764900 2.821146 -7.964010 1.421049 -92.216021 9.232825 25.588888 23.198789 -31.357686 -5.591238 0.640137 0.031893 7.260062 8.490161 -26.644065 -3.562100 -7.125000 0.000000 0.000000 -13.240000 3.565000 12.741900 -1.679983 9.713591 4.083672 94.245283 -14.791384 20.219465 -32.306553 39.728929 -9.738222 0.874626 -3.515468 10.866564 -8.371277 -44.058921 6.560300 7.125000 0.000000 0.000000 35.778500 -67.705700 -20.547000 
-0.624094 18.318922 5.560082 0.795350 -2.646514 5.564492 0.776850 3.122786 2.103476 -14.729164 -11.895152 -5.822340 0.549105 6.311215 20.497287 -0.801083 8.049815 -15.850890 8.217500 -16.276900 -53.342300 -4.728428 -4.067057 0.970087 16.623434 5.332187 2.142915 0.284716 0.760117 1.518631 0.278779 -5.351872 -12.688849 -0.042700 1.334000 -3.668200 2.370066 2.595581 -5.093817 -9.627971 2.100080 7.923663 2.389807 2.044931 -9.910535 -2.392841 -3.989080 -23.180161 7.456872 -6.252591 32.791343 1.234300 -1.875300 9.761000 2.811518 -7.960060 1.415117 -92.209299 9.215883 25.656779 23.201963 -31.362101 -5.593686 0.640938 0.030876 7.186510 8.461133 -26.697789 -3.554700 -7.125000 0.000000 0.000000 -13.259200 3.517600 12.773300 -1.693314 9.713058 4.079103 94.252451 -14.783220 20.189221 -32.309591 39.736822 -9.743605 0.871509 -3.516307 10.857569 -8.419074 -44.104635 6.595400 7.125000 0.000000 0.000000 35.800000 -67.752300 -20.597200 
